<?xml version="1.0" encoding="UTF-8"?>
<svg xmlns="http://www.w3.org/2000/svg" version="1.1" viewBox="0 0 391.5 404.5">
  <defs>
    <style>
      .cls-1 {
        fill: #fff;
        font-family: Constantia, Constantia;
        font-size: 171.3px;
      }

      .cls-1, .cls-2 {
        stroke: #fff;
        stroke-miterlimit: 10;
      }

      .cls-2 {
        fill: none;
        stroke-width: 3px;
      }
    </style>
  </defs>
  <!-- Generator: Adobe Illustrator 28.6.0, SVG Export Plug-In . SVG Version: 1.2.0 Build 709)  -->
  <g>
    <g id="Layer_1">
      <path d="M137.7,130.5c-.4,1-1.8.9-2.7.9-1.3,0-2.6-.4-3.7-1l-.3.7c2.2.4,4.4.7,6.6.8s.5-.7,0-.8c-2.1-.1-4.3-.4-6.4-.8s-.7.5-.3.7c1.4.7,2.9,1.1,4.5,1.1s2.6-.2,3-1.5-.6-.6-.7-.2h0Z"/>
      <path d="M137.3,130.4c-2.1.2-4.3,0-6.4-.6s-.7.6-.2.7c2.1.6,4.3.8,6.5.6s.5-.8,0-.8h0Z"/>
      <path d="M130.7,130.8c.5,0,.5-.8,0-.8s-.5.8,0,.8h0Z"/>
      <path d="M130.7,130.7l3.5,1c.5.1.7-.6.2-.7l-3.5-1c-.5-.1-.7.6-.2.7h0Z"/>
      <path d="M137.9,131.1c-1.2.4-2.5.3-3.7,0s-.7.6-.2.7c1.3.4,2.8.5,4.1,0s.3-.9-.2-.7h0Z"/>
      <path d="M137.3,131.2c0,0,.1,0,.2,0h0c0,0,.2,0,.3,0,0,0,0,0,.1,0,0,0,0,0,.1,0,0,0,0,0,.1,0,0,0,0,0,0-.1,0,0,0-.2,0-.3h0c0-.1-.1-.2-.2-.2,0,0-.1,0-.2,0s-.2,0-.3,0c0,0,0,0-.1,0,0,0,0,0-.1,0,0,0,0,0,0,.1,0,0,0,0,0,.1,0,0,0,.2.1.3s.2.1.3.1h0Z"/>
      <path d="M137.3,130.8s0,0,0,0h0c0,0,0,0,0,0h0c0,0,0,0,0,0h0c0,0,0,0,0,0h0c0,0,0,0,0,0h0c0,0,0,0,0,0h0s0,0,0,0h0c.3,0,.6,0,.9,0l-.2-.7s0,0,0,0h0c-.1,0-.2,0-.3,0h0c0,0-.1,0-.2,0l.2.7c0,0,.1,0,.2-.1h0c0,0,.2,0,.3,0h0s0,0,0,0c.1,0,.2,0,.3-.1s.1-.2.1-.3,0-.2-.1-.3h0c0,0-.1-.1-.2-.1-.2,0-.4,0-.6.2h0c0,0-.2,0-.3,0h0s0,0-.1,0h0s0,0,0,0c0,0-.2,0-.3,0s-.2.1-.2.2c0,.2,0,.4.3.5s.3,0,.4,0,.2,0,.3-.1h0c0,0,.2,0,.3,0h0s0,0,.1,0v-.8c-.3,0-.5,0-.7.2s-.1.1-.2.2,0,.2,0,.2c0,.2.2.3.4.3.3,0,.5,0,.8-.2h0c0,0,0-.1,0-.2,0,0,0-.2,0-.2,0-.2-.2-.3-.4-.3s-.5,0-.7,0-.1,0-.2,0-.2,0-.2,0c-.1,0-.2.1-.3.2s0,.2,0,.4,0,.2.2.2.2,0,.3,0,.2,0,.2-.2,0-.2,0-.3h0Z"/>
      <path d="M137.2,132h.3c0,0,.2-.1.2-.1h0s0,0,0,0h0s0,0,0,0h0s0,0,0,0h0c0,0,0,0,0,0h0c0,0,0,0,0,0h0c0,0,0,0,0,0h0c0,0,0,0,0,0h0c0,0,0,0,0,0h0c0,0,0,0,0,0h0c0,0,0,0,0,0h0c0,0,0,0,0,0h0s0,0,0,0h0c-.1,0-.3,0-.4,0s-.3,0-.4,0-.2,0-.3.1-.1.2-.1.3c0,.2.2.4.4.4s.4,0,.5,0,.5,0,.7-.2.2-.3.1-.5-.2-.2-.3-.3-.2,0-.3,0c-.2,0-.3,0-.5.1s-.2,0-.2.2,0,.2,0,.3c0,.2.3.3.5.3h0Z"/>
      <path d="M131.3,130.3c0,0-.1,0-.2,0h0c0,0-.2,0-.2-.1h0s0,0,0,0c0,0,0,0-.1,0,0,0,0,0-.1,0,0,0,0,0-.1,0,0,0,0,0-.1,0,0,0-.1.2-.1.3s0,.2.1.3.2.1.3.2.1,0,.2,0,0,0,.1,0c0,0,0,0,.1,0,0,0,0,0,.1,0,0,0,0,0,.1,0,0,0,0,0,0-.1,0,0,0-.2,0-.3s-.1-.1-.2-.2h0Z"/>
      <path d="M130.8,130.6c.5,0,.5-.8,0-.8s-.5.8,0,.8h0Z"/>
      <text/>
      <g>
        <g>
          <text class="cls-1" transform="translate(112.1 206)"><tspan x="0" y="0">H</tspan></text>
          <text class="cls-1" transform="translate(189.2 206)"><tspan x="0" y="0">E</tspan></text>
          <text class="cls-1" transform="translate(192 317.3)"><tspan x="0" y="0">J</tspan></text>
        </g>
        <circle class="cls-2" cx="197.8" cy="200.2" r="181.3"/>
      </g>
    </g>
  </g>
</svg>